<?xml version="1.0" standalone="no"?>
<svg xmlns="http://www.w3.org/2000/svg" xmlns:xlink="http://www.w3.org/1999/xlink" width="879pt" height="838pt" viewBox="0.00 0.00 879.00 838.41">
<g id="graph0" class="graph" transform="translate(88.43736137533404,771.6950473684401) scale(0.8705505632961241)" data-name="G">

<polygon fill="white" stroke="none" points="-4,4 -4,-834.41 875,-834.41 875,4 -4,4" style=""/>
<text text-anchor="middle" x="435.5" y="-813.81" font-family="Times,serif" font-size="14.00" style="">Distance Matrix for TSP</text>
<!-- A -->
<g id="node1" class="node" pointer-events="visible" data-name="A">

<ellipse fill="none" stroke="black" cx="392" cy="-770.69" rx="34.83" ry="34.83" style=""/>
<text text-anchor="middle" x="392" y="-766.49" font-family="Times,serif" font-size="14.00" style="">City 1</text>
</g>
<!-- B -->
<g id="node2" class="node" pointer-events="visible" data-name="B">

<ellipse fill="none" stroke="black" cx="452" cy="-648.06" rx="34.83" ry="34.83" style=""/>
<text text-anchor="middle" x="452" y="-643.86" font-family="Times,serif" font-size="14.00" style="">City 2</text>
</g>
<!-- A&#45;&gt;B -->
<g id="edge1" class="edge" data-name="A-&gt;B">

<path fill="none" stroke="black" d="M407.3,-738.94C414.7,-724.05 423.69,-705.97 431.67,-689.94" style=""/>
<polygon fill="black" stroke="black" points="434.74,-691.63 436.06,-681.11 428.47,-688.51 434.74,-691.63" style=""/>
<text text-anchor="middle" x="433" y="-705.18" font-family="Times,serif" font-size="14.00" style="">10</text>
</g>
<!-- C -->
<g id="node3" class="node" pointer-events="visible" data-name="C">

<ellipse fill="none" stroke="black" cx="396" cy="-34.91" rx="34.83" ry="34.83" style=""/>
<text text-anchor="middle" x="396" y="-30.71" font-family="Times,serif" font-size="14.00" style="">City 3</text>
</g>
<!-- A&#45;&gt;C -->
<g id="edge2" class="edge" data-name="A-&gt;C">

<path fill="none" stroke="black" d="M356.86,-768.56C277.47,-765.38 87.22,-754.07 36,-717.78 7.87,-697.84 0,-683.54 0,-649.06 0,-649.06 0,-649.06 0,-156.54 0,-122.07 7.85,-107.74 36,-87.83 85.54,-52.78 263.63,-41.1 349.31,-37.45" style=""/>
<polygon fill="black" stroke="black" points="349.4,-40.95 359.25,-37.05 349.12,-33.96 349.4,-40.95" style=""/>
<text text-anchor="middle" x="7" y="-398.6" font-family="Times,serif" font-size="14.00" style="">15</text>
</g>
<!-- D -->
<g id="node4" class="node" pointer-events="visible" data-name="D">

<ellipse fill="none" stroke="black" cx="397" cy="-157.54" rx="34.83" ry="34.83" style=""/>
<text text-anchor="middle" x="397" y="-153.34" font-family="Times,serif" font-size="14.00" style="">City 4</text>
</g>
<!-- A&#45;&gt;D -->
<g id="edge3" class="edge" data-name="A-&gt;D">

<path fill="none" stroke="black" d="M356.89,-769.88C313.64,-768.2 240.43,-758.91 196,-717.78 172.26,-695.8 172,-681.41 172,-649.06 172,-649.06 172,-649.06 172,-463.12 172,-350.14 126.21,-296.01 200,-210.46 219.54,-187.8 299.31,-172.42 351.16,-164.59" style=""/>
<polygon fill="black" stroke="black" points="351.52,-168.07 360.91,-163.16 350.5,-161.15 351.52,-168.07" style=""/>
<text text-anchor="middle" x="179" y="-459.92" font-family="Times,serif" font-size="14.00" style="">20</text>
</g>
<!-- E -->
<g id="node5" class="node" pointer-events="visible" data-name="E">

<ellipse fill="none" stroke="black" cx="620" cy="-280.17" rx="34.83" ry="34.83" style=""/>
<text text-anchor="middle" x="620" y="-275.97" font-family="Times,serif" font-size="14.00" style="">City 5</text>
</g>
<!-- A&#45;&gt;E -->
<g id="edge4" class="edge" data-name="A-&gt;E">

<path fill="none" stroke="black" d="M426.64,-765.56C479.46,-757.72 581.06,-736.39 648,-682.98 685.76,-652.85 687.57,-636.81 712,-595.15 763.29,-507.68 734.69,-459.86 692,-367.89 684.58,-351.9 683.63,-347.14 673,-333.09 667.36,-325.63 660.65,-318.23 653.94,-311.45" style=""/>
<polygon fill="black" stroke="black" points="656.81,-309.36 647.21,-304.87 651.92,-314.36 656.81,-309.36" style=""/>
<text text-anchor="middle" x="746" y="-521.23" font-family="Times,serif" font-size="14.00" style="">25</text>
</g>
<!-- F -->
<g id="node6" class="node" pointer-events="visible" data-name="F">

<ellipse fill="none" stroke="black" cx="625" cy="-402.8" rx="34.83" ry="34.83" style=""/>
<text text-anchor="middle" x="625" y="-398.6" font-family="Times,serif" font-size="14.00" style="">City 6</text>
</g>
<!-- A&#45;&gt;F -->
<g id="edge5" class="edge" data-name="A-&gt;F">

<path fill="none" stroke="black" d="M423.23,-754.29C478.09,-725.23 590.03,-656.48 633,-560.35 648.89,-524.79 644.52,-480.06 637.56,-447.53" style=""/>
<polygon fill="black" stroke="black" points="641.03,-446.99 635.37,-438.04 634.21,-448.57 641.03,-446.99" style=""/>
<text text-anchor="middle" x="629" y="-582.55" font-family="Times,serif" font-size="14.00" style="">30</text>
</g>
<!-- G -->
<g id="node7" class="node" pointer-events="visible" data-name="G">

<ellipse fill="none" stroke="black" cx="384" cy="-525.43" rx="34.83" ry="34.83" style=""/>
<text text-anchor="middle" x="384" y="-521.23" font-family="Times,serif" font-size="14.00" style="">City 7</text>
</g>
<!-- A&#45;&gt;G -->
<g id="edge6" class="edge" data-name="A-&gt;G">

<path fill="none" stroke="black" d="M389.97,-735.59C387.99,-700.42 385.12,-643.97 384,-595.15 383.83,-587.7 383.74,-579.8 383.71,-572.11" style=""/>
<polygon fill="black" stroke="black" points="387.21,-572.2 383.69,-562.2 380.21,-572.21 387.21,-572.2" style=""/>
<text text-anchor="middle" x="395" y="-643.86" font-family="Times,serif" font-size="14.00" style="">35</text>
</g>
<!-- B&#45;&gt;A -->
<g id="edge7" class="edge" data-name="B-&gt;A">

<path fill="none" stroke="black" d="M424.97,-670.24C415.89,-678.8 406.64,-689.39 401,-700.98 397.49,-708.18 395.2,-716.29 393.73,-724.34" style=""/>
<polygon fill="black" stroke="black" points="390.28,-723.7 392.36,-734.09 397.21,-724.67 390.28,-723.7" style=""/>
<text text-anchor="middle" x="408" y="-705.18" font-family="Times,serif" font-size="14.00" style="">10</text>
</g>
<!-- B&#45;&gt;C -->
<g id="edge8" class="edge" data-name="B-&gt;C">

<path fill="none" stroke="black" d="M486.75,-642.93C576.84,-631.27 811,-594.4 811,-526.43 811,-526.43 811,-526.43 811,-156.54 811,-120.52 798.23,-107.43 768,-87.83 715.1,-53.54 529.88,-41.43 442.41,-37.56" style=""/>
<polygon fill="black" stroke="black" points="442.64,-34.07 432.51,-37.14 442.35,-41.06 442.64,-34.07" style=""/>
<text text-anchor="middle" x="818" y="-337.29" font-family="Times,serif" font-size="14.00" style="">35</text>
</g>
<!-- B&#45;&gt;D -->
<g id="edge9" class="edge" data-name="B-&gt;D">

<path fill="none" stroke="black" d="M424.46,-626.2C412.05,-616.77 397.25,-605.45 384,-595.15 364.31,-579.85 355.65,-579.76 340,-560.35 301.93,-513.1 294.65,-496.6 280,-437.72 259.35,-354.69 236.91,-321.36 276,-245.26 292.39,-213.36 326.56,-190.56 354.43,-176.37" style=""/>
<polygon fill="black" stroke="black" points="355.92,-179.54 363.39,-172.02 352.86,-173.24 355.92,-179.54" style=""/>
<text text-anchor="middle" x="287" y="-398.6" font-family="Times,serif" font-size="14.00" style="">25</text>
</g>
<!-- B&#45;&gt;E -->
<g id="edge10" class="edge" data-name="B-&gt;E">

<path fill="none" stroke="black" d="M468.72,-617.32C487.69,-583 518.97,-524.59 542,-472.52 562.07,-427.13 562.15,-413.8 581,-367.89 587.1,-353.04 594.19,-336.97 600.64,-322.74" style=""/>
<polygon fill="black" stroke="black" points="603.82,-324.19 604.79,-313.64 597.45,-321.29 603.82,-324.19" style=""/>
<text text-anchor="middle" x="555" y="-459.92" font-family="Times,serif" font-size="14.00" style="">30</text>
</g>
<!-- B&#45;&gt;F -->
<g id="edge11" class="edge" data-name="B-&gt;F">

<path fill="none" stroke="black" d="M486.41,-640.07C512.58,-633.01 547.63,-619.56 569,-595.15 604.74,-554.32 617.7,-491.74 622.39,-449.37" style=""/>
<polygon fill="black" stroke="black" points="625.86,-449.78 623.35,-439.49 618.9,-449.1 625.86,-449.78" style=""/>
<text text-anchor="middle" x="622" y="-521.23" font-family="Times,serif" font-size="14.00" style="">15</text>
</g>
<!-- B&#45;&gt;G -->
<g id="edge12" class="edge" data-name="B-&gt;G">

<path fill="none" stroke="black" d="M423.18,-627.97C412.3,-619.26 400.9,-608.01 394,-595.15 390.2,-588.07 387.7,-580.03 386.09,-572" style=""/>
<polygon fill="black" stroke="black" points="389.57,-571.59 384.57,-562.25 382.65,-572.67 389.57,-571.59" style=""/>
<text text-anchor="middle" x="401" y="-582.55" font-family="Times,serif" font-size="14.00" style="">20</text>
</g>
<!-- C&#45;&gt;A -->
<g id="edge13" class="edge" data-name="C-&gt;A">

<path fill="none" stroke="black" d="M360.98,-37.21C307.69,-40.36 204.07,-51.1 125,-87.83 84,-106.87 50,-111.34 50,-156.54 50,-649.06 50,-649.06 50,-649.06 50,-711.1 252.67,-749.11 345.98,-763.32" style=""/>
<polygon fill="black" stroke="black" points="345.42,-766.78 355.83,-764.79 346.45,-759.85 345.42,-766.78" style=""/>
<text text-anchor="middle" x="57" y="-398.6" font-family="Times,serif" font-size="14.00" style="">15</text>
</g>
<!-- C&#45;&gt;B -->
<g id="edge14" class="edge" data-name="C-&gt;B">

<path fill="none" stroke="black" d="M361.14,-36.95C311.8,-39.78 220.16,-50.16 153,-87.83 49.8,-145.72 92.75,-232.3 106,-349.89 112.26,-405.44 100.44,-427.81 134,-472.52 146.63,-489.34 301.48,-570.68 356,-595.15 377.55,-604.82 385.17,-602.02 406,-613.15 409.24,-614.88 412.5,-616.82 415.71,-618.86" style=""/>
<polygon fill="black" stroke="black" points="413.64,-621.69 423.88,-624.41 417.57,-615.89 413.64,-621.69" style=""/>
<text text-anchor="middle" x="113" y="-337.29" font-family="Times,serif" font-size="14.00" style="">35</text>
</g>
<!-- C&#45;&gt;D -->
<g id="edge15" class="edge" data-name="C-&gt;D">

<path fill="none" stroke="black" d="M382.58,-67.52C379.15,-79.11 376.94,-92.39 379,-104.63 379.51,-107.66 380.18,-110.74 380.95,-113.82" style=""/>
<polygon fill="black" stroke="black" points="377.58,-114.77 383.73,-123.4 384.31,-112.83 377.58,-114.77" style=""/>
<text text-anchor="middle" x="386" y="-92.03" font-family="Times,serif" font-size="14.00" style="">30</text>
</g>
<!-- C&#45;&gt;E -->
<g id="edge16" class="edge" data-name="C-&gt;E">

<path fill="none" stroke="black" d="M430.86,-38.63C490.24,-44.02 607.19,-58.19 634,-87.83 670.38,-128.05 654.82,-194.52 638.67,-237.57" style=""/>
<polygon fill="black" stroke="black" points="635.43,-236.25 635.03,-246.84 641.94,-238.81 635.43,-236.25" style=""/>
<text text-anchor="middle" x="663" y="-153.34" font-family="Times,serif" font-size="14.00" style="">20</text>
</g>
<!-- C&#45;&gt;F -->
<g id="edge17" class="edge" data-name="C-&gt;F">

<path fill="none" stroke="black" d="M431.28,-35.59C512.29,-35.69 707.77,-40.87 749,-87.83 787.43,-131.59 784.47,-301.54 752,-349.89 734,-376.69 699.47,-389.66 670.96,-395.94" style=""/>
<polygon fill="black" stroke="black" points="670.59,-392.44 661.46,-397.81 671.94,-399.31 670.59,-392.44" style=""/>
<text text-anchor="middle" x="784" y="-214.66" font-family="Times,serif" font-size="14.00" style="">25</text>
</g>
<!-- C&#45;&gt;G -->
<g id="edge18" class="edge" data-name="C-&gt;G">

<path fill="none" stroke="black" d="M366.86,-54.5C337.97,-75.46 298,-112.43 298,-156.54 298,-403.8 298,-403.8 298,-403.8 298,-440.45 324.65,-473.68 348.28,-495.94" style=""/>
<polygon fill="black" stroke="black" points="345.9,-498.51 355.67,-502.61 350.59,-493.31 345.9,-498.51" style=""/>
<text text-anchor="middle" x="305" y="-275.97" font-family="Times,serif" font-size="14.00" style="">10</text>
</g>
<!-- D&#45;&gt;A -->
<g id="edge19" class="edge" data-name="D-&gt;A">

<path fill="none" stroke="black" d="M363.28,-167.27C327.62,-178.56 273.46,-202.11 251,-245.26 205.51,-332.66 210,-364.59 210,-463.12 210,-649.06 210,-649.06 210,-649.06 210,-714.53 292.84,-746.57 346.74,-760.49" style=""/>
<polygon fill="black" stroke="black" points="345.75,-763.85 356.3,-762.83 347.42,-757.05 345.75,-763.85" style=""/>
<text text-anchor="middle" x="217" y="-459.92" font-family="Times,serif" font-size="14.00" style="">20</text>
</g>
<!-- D&#45;&gt;B -->
<g id="edge20" class="edge" data-name="D-&gt;B">

<path fill="none" stroke="black" d="M404.09,-192C412.01,-224.91 426.85,-275.77 450,-315.09 466.09,-342.42 486.56,-338.31 498,-367.89 509.19,-396.84 512.64,-410.36 498,-437.72 491.19,-450.43 478.43,-443.36 471,-455.72 444.35,-500.09 443.01,-560.91 446.1,-601.97" style=""/>
<polygon fill="black" stroke="black" points="442.6,-602.1 446.97,-611.75 449.57,-601.48 442.6,-602.1" style=""/>
<text text-anchor="middle" x="514" y="-398.6" font-family="Times,serif" font-size="14.00" style="">25</text>
</g>
<!-- D&#45;&gt;C -->
<g id="edge21" class="edge" data-name="D-&gt;C">

<path fill="none" stroke="black" d="M396.72,-122.3C396.61,-109.46 396.49,-94.66 396.37,-80.99" style=""/>
<polygon fill="black" stroke="black" points="399.88,-81.31 396.29,-71.34 392.88,-81.37 399.88,-81.31" style=""/>
<text text-anchor="middle" x="404" y="-92.03" font-family="Times,serif" font-size="14.00" style="">30</text>
</g>
<!-- D&#45;&gt;E -->
<g id="edge22" class="edge" data-name="D-&gt;E">

<path fill="none" stroke="black" d="M431.8,-162.49C468.69,-168.09 527.28,-181.13 569,-210.46 580,-218.19 589.59,-229.04 597.4,-239.84" style=""/>
<polygon fill="black" stroke="black" points="594.43,-241.69 602.95,-247.99 600.21,-237.75 594.43,-241.69" style=""/>
<text text-anchor="middle" x="593" y="-214.66" font-family="Times,serif" font-size="14.00" style="">10</text>
</g>
<!-- D&#45;&gt;F -->
<g id="edge23" class="edge" data-name="D-&gt;F">

<path fill="none" stroke="black" d="M427.18,-175.16C442.65,-184.45 461.29,-196.88 476,-210.46 526.6,-257.15 573.35,-322.26 600.52,-363.21" style=""/>
<polygon fill="black" stroke="black" points="597.59,-365.12 606,-371.56 603.44,-361.28 597.59,-365.12" style=""/>
<text text-anchor="middle" x="569.5" y="-275.97" font-family="Times,serif" font-size="14.00" style="">5</text>
</g>
<!-- D&#45;&gt;G -->
<g id="edge24" class="edge" data-name="D-&gt;G">

<path fill="none" stroke="black" d="M394.93,-192.65C392.87,-227.82 389.77,-284.27 388,-333.09 386.2,-382.89 385.13,-440.02 384.56,-478.79" style=""/>
<polygon fill="black" stroke="black" points="381.06,-478.64 384.42,-488.69 388.06,-478.74 381.06,-478.64" style=""/>
<text text-anchor="middle" x="395" y="-337.29" font-family="Times,serif" font-size="14.00" style="">15</text>
</g>
<!-- E&#45;&gt;A -->
<g id="edge25" class="edge" data-name="E-&gt;A">

<path fill="none" stroke="black" d="M655.06,-280.62C700.49,-281.78 779.68,-290.38 829,-333.09 853.93,-354.68 857,-368.83 857,-401.8 857,-649.06 857,-649.06 857,-649.06 857,-734.94 556.11,-760.71 438.41,-767.51" style=""/>
<polygon fill="black" stroke="black" points="438.25,-764.01 428.46,-768.06 438.64,-771 438.25,-764.01" style=""/>
<text text-anchor="middle" x="864" y="-521.23" font-family="Times,serif" font-size="14.00" style="">25</text>
</g>
<!-- E&#45;&gt;B -->
<g id="edge26" class="edge" data-name="E-&gt;B">

<path fill="none" stroke="black" d="M640.95,-308.32C652.02,-324.59 664.27,-346.27 669,-367.89 690.6,-466.57 728.41,-516.51 665,-595.15 644.33,-620.79 554.25,-635.49 498.06,-642.32" style=""/>
<polygon fill="black" stroke="black" points="497.99,-638.81 488.47,-643.45 498.81,-645.76 497.99,-638.81" style=""/>
<text text-anchor="middle" x="702" y="-459.92" font-family="Times,serif" font-size="14.00" style="">30</text>
</g>
<!-- E&#45;&gt;C -->
<g id="edge27" class="edge" data-name="E-&gt;C">

<path fill="none" stroke="black" d="M616.56,-245.35C614.25,-233.67 610.41,-220.9 604,-210.46 561.97,-142.01 483.75,-87.36 436.13,-58.46" style=""/>
<polygon fill="black" stroke="black" points="438.14,-55.58 427.76,-53.46 434.55,-61.59 438.14,-55.58" style=""/>
<text text-anchor="middle" x="597" y="-153.34" font-family="Times,serif" font-size="14.00" style="">20</text>
</g>
<!-- E&#45;&gt;D -->
<g id="edge28" class="edge" data-name="E-&gt;D">

<path fill="none" stroke="black" d="M592.08,-258.95C579.37,-249.54 564.24,-238.07 551,-227.26 542.27,-220.13 541.64,-216.31 532,-210.46 503.7,-193.28 468.75,-180.03 441.5,-171.21" style=""/>
<polygon fill="black" stroke="black" points="442.74,-167.94 432.15,-168.28 440.64,-174.61 442.74,-167.94" style=""/>
<text text-anchor="middle" x="558" y="-214.66" font-family="Times,serif" font-size="14.00" style="">10</text>
</g>
<!-- E&#45;&gt;F -->
<g id="edge29" class="edge" data-name="E-&gt;F">

<path fill="none" stroke="black" d="M620.08,-315.44C620.22,-326.45 620.49,-338.69 621,-349.89 621.1,-352.06 621.21,-354.27 621.34,-356.51" style=""/>
<polygon fill="black" stroke="black" points="617.83,-356.49 621.97,-366.24 624.82,-356.04 617.83,-356.49" style=""/>
<text text-anchor="middle" x="628" y="-337.29" font-family="Times,serif" font-size="14.00" style="">15</text>
</g>
<!-- E&#45;&gt;G -->
<g id="edge30" class="edge" data-name="E-&gt;G">

<path fill="none" stroke="black" d="M593.63,-302.99C588.24,-307.16 582.52,-311.37 577,-315.09 537.56,-341.62 518.38,-335.07 484,-367.89 464.12,-386.87 432.86,-449.39 418,-472.52 415.13,-476.98 412.1,-481.66 409.09,-486.29" style=""/>
<polygon fill="black" stroke="black" points="406.33,-484.1 403.8,-494.39 412.2,-487.93 406.33,-484.1" style=""/>
<text text-anchor="middle" x="491" y="-398.6" font-family="Times,serif" font-size="14.00" style="">25</text>
</g>
<!-- F&#45;&gt;A -->
<g id="edge31" class="edge" data-name="F-&gt;A">

<path fill="none" stroke="black" d="M658.13,-415.01C676.66,-423.17 698.15,-436.25 709,-455.72 739.66,-510.71 716.11,-541 684,-595.15 628.92,-688.02 503.59,-737.26 436.44,-757.83" style=""/>
<polygon fill="black" stroke="black" points="435.82,-754.36 427.23,-760.56 437.82,-761.07 435.82,-754.36" style=""/>
<text text-anchor="middle" x="701" y="-582.55" font-family="Times,serif" font-size="14.00" style="">30</text>
</g>
<!-- F&#45;&gt;B -->
<g id="edge32" class="edge" data-name="F-&gt;B">

<path fill="none" stroke="black" d="M607.42,-433.25C597.62,-449.91 585.35,-471.22 575,-490.52 550.46,-536.28 556.47,-555.44 523,-595.15 514,-605.82 502.38,-615.49 491.15,-623.51" style=""/>
<polygon fill="black" stroke="black" points="489.41,-620.46 483.13,-629 493.36,-626.24 489.41,-620.46" style=""/>
<text text-anchor="middle" x="582" y="-521.23" font-family="Times,serif" font-size="14.00" style="">15</text>
</g>
<!-- F&#45;&gt;C -->
<g id="edge33" class="edge" data-name="F-&gt;C">

<path fill="none" stroke="black" d="M642.27,-372.08C646.07,-364.94 649.89,-357.24 653,-349.89 659.32,-334.95 660.88,-331.01 664,-315.09 683.47,-215.86 735.68,-146.06 653,-87.83 619.56,-64.28 506.42,-48.21 441.96,-40.72" style=""/>
<polygon fill="black" stroke="black" points="442.74,-37.29 432.41,-39.64 441.95,-44.24 442.74,-37.29" style=""/>
<text text-anchor="middle" x="698" y="-214.66" font-family="Times,serif" font-size="14.00" style="">25</text>
</g>
<!-- F&#45;&gt;D -->
<g id="edge34" class="edge" data-name="F-&gt;D">

<path fill="none" stroke="black" d="M594.57,-384.95C567.89,-369.2 529.08,-343.85 501,-315.09 491.38,-305.23 449.21,-240.28 421.61,-197.19" style=""/>
<polygon fill="black" stroke="black" points="424.6,-195.37 416.26,-188.84 418.7,-199.15 424.6,-195.37" style=""/>
<text text-anchor="middle" x="504.5" y="-275.97" font-family="Times,serif" font-size="14.00" style="">5</text>
</g>
<!-- F&#45;&gt;E -->
<g id="edge35" class="edge" data-name="F-&gt;E">

<path fill="none" stroke="black" d="M633.68,-368.61C635.6,-357.34 636.64,-344.67 635,-333.09 634.6,-330.28 634.09,-327.42 633.5,-324.55" style=""/>
<polygon fill="black" stroke="black" points="636.95,-323.93 631.22,-315.02 630.14,-325.56 636.95,-323.93" style=""/>
<text text-anchor="middle" x="642" y="-337.29" font-family="Times,serif" font-size="14.00" style="">15</text>
</g>
<!-- F&#45;&gt;G -->
<g id="edge36" class="edge" data-name="F-&gt;G">

<path fill="none" stroke="black" d="M593.8,-419.1C574.47,-428.92 549.35,-442.3 528,-455.72 517.28,-462.45 516,-466.25 505,-472.52 480.31,-486.59 451.07,-499.24 427.52,-508.53" style=""/>
<polygon fill="black" stroke="black" points="426.27,-505.26 418.21,-512.13 428.79,-511.78 426.27,-505.26" style=""/>
<text text-anchor="middle" x="535" y="-459.92" font-family="Times,serif" font-size="14.00" style="">20</text>
</g>
<!-- G&#45;&gt;A -->
<g id="edge37" class="edge" data-name="G-&gt;A">

<path fill="none" stroke="black" d="M375.65,-559.49C368.75,-591.23 361,-640.48 367,-682.98 369.06,-697.54 372.97,-713.09 377.1,-726.94" style=""/>
<polygon fill="black" stroke="black" points="373.66,-727.68 379.97,-736.19 380.35,-725.6 373.66,-727.68" style=""/>
<text text-anchor="middle" x="374" y="-643.86" font-family="Times,serif" font-size="14.00" style="">35</text>
</g>
<!-- G&#45;&gt;B -->
<g id="edge38" class="edge" data-name="G-&gt;B">

<path fill="none" stroke="black" d="M400.85,-556.33C409.52,-571.71 420.21,-590.66 429.57,-607.26" style=""/>
<polygon fill="black" stroke="black" points="426.49,-608.93 434.45,-615.93 432.59,-605.5 426.49,-608.93" style=""/>
<text text-anchor="middle" x="430" y="-582.55" font-family="Times,serif" font-size="14.00" style="">20</text>
</g>
<!-- G&#45;&gt;C -->
<g id="edge39" class="edge" data-name="G-&gt;C">

<path fill="none" stroke="black" d="M350.59,-514.06C326.22,-506.76 292.28,-497.14 262,-490.52 237.37,-485.13 168.43,-489.71 150,-472.52 127.07,-451.13 134,-435.16 134,-403.8 134,-403.8 134,-403.8 134,-156.54 134,-62.79 274.15,-41.65 349.44,-37.06" style=""/>
<polygon fill="black" stroke="black" points="349.62,-40.55 359.43,-36.53 349.26,-33.56 349.62,-40.55" style=""/>
<text text-anchor="middle" x="141" y="-275.97" font-family="Times,serif" font-size="14.00" style="">10</text>
</g>
<!-- G&#45;&gt;D -->
<g id="edge40" class="edge" data-name="G-&gt;D">

<path fill="none" stroke="black" d="M378.45,-490.55C372.91,-452.31 365.76,-388.22 370,-333.09 373.41,-288.73 381.63,-238.58 388.11,-203.46" style=""/>
<polygon fill="black" stroke="black" points="391.55,-204.11 389.95,-193.64 384.67,-202.82 391.55,-204.11" style=""/>
<text text-anchor="middle" x="377" y="-337.29" font-family="Times,serif" font-size="14.00" style="">15</text>
</g>
<!-- G&#45;&gt;E -->
<g id="edge41" class="edge" data-name="G-&gt;E">

<path fill="none" stroke="black" d="M388.39,-490.51C394.2,-450.23 405.56,-386.19 421,-367.89 468.2,-311.94 511.19,-347.14 577,-315.09 579.71,-313.77 582.41,-312.25 585.06,-310.62" style=""/>
<polygon fill="black" stroke="black" points="586.83,-313.64 593.11,-305.11 582.88,-307.86 586.83,-313.64" style=""/>
<text text-anchor="middle" x="428" y="-398.6" font-family="Times,serif" font-size="14.00" style="">25</text>
</g>
<!-- G&#45;&gt;F -->
<g id="edge42" class="edge" data-name="G-&gt;F">

<path fill="none" stroke="black" d="M411.27,-503.5C431.4,-488.75 459.89,-469.28 487,-455.72 508.5,-444.97 515.47,-446.08 538,-437.72 552.53,-432.32 568.35,-426.23 582.46,-420.7" style=""/>
<polygon fill="black" stroke="black" points="583.43,-424.08 591.46,-417.17 580.87,-417.57 583.43,-424.08" style=""/>
<text text-anchor="middle" x="494" y="-459.92" font-family="Times,serif" font-size="14.00" style="">20</text>
</g>
</g>
</svg>