<?xml version="1.0" standalone="no"?>
<svg xmlns="http://www.w3.org/2000/svg" xmlns:xlink="http://www.w3.org/1999/xlink" width="1123pt" height="961pt" viewBox="0.00 0.00 1123.00 961.04">
<g id="graph0" class="graph" transform="translate(4,957.0399780273438) scale(1)" data-name="G">

<polygon fill="white" stroke="none" points="-4,4 -4,-957.04 1119,-957.04 1119,4 -4,4"/>
<text text-anchor="middle" x="557.5" y="-936.44" font-family="Times,serif" font-size="14.00">Distance Matrix for TSP</text>
<!-- A -->
<g id="node1" class="node" pointer-events="visible" data-name="A">

<ellipse fill="none" stroke="black" cx="686" cy="-893.32" rx="34.83" ry="34.83"/>
<text text-anchor="middle" x="686" y="-889.12" font-family="Times,serif" font-size="14.00">City 1</text>
</g>
<!-- B -->
<g id="node2" class="node" pointer-events="visible" data-name="B">

<ellipse fill="none" stroke="black" cx="608" cy="-770.69" rx="34.83" ry="34.83"/>
<text text-anchor="middle" x="608" y="-766.49" font-family="Times,serif" font-size="14.00">City 2</text>
</g>
<!-- A&#45;&gt;B -->
<g id="edge1" class="edge" data-name="A-&gt;B">

<path fill="none" stroke="black" d="M667.32,-863.43C656.9,-847.31 643.79,-827.05 632.55,-809.67"/>
<polygon fill="black" stroke="black" points="635.72,-808.12 627.35,-801.62 629.84,-811.92 635.72,-808.12"/>
<text text-anchor="middle" x="658" y="-827.81" font-family="Times,serif" font-size="14.00">10</text>
</g>
<!-- C -->
<g id="node3" class="node" pointer-events="visible" data-name="C">

<ellipse fill="none" stroke="black" cx="565" cy="-34.91" rx="34.83" ry="34.83"/>
<text text-anchor="middle" x="565" y="-30.71" font-family="Times,serif" font-size="14.00">City 3</text>
</g>
<!-- A&#45;&gt;C -->
<g id="edge2" class="edge" data-name="A-&gt;C">

<path fill="none" stroke="black" d="M720.79,-888.73C814.12,-878.13 1063,-843.16 1063,-771.69 1063,-771.69 1063,-771.69 1063,-156.54 1063,-64.12 734.88,-42.26 611.32,-37.3"/>
<polygon fill="black" stroke="black" points="611.66,-33.81 601.53,-36.93 611.39,-40.81 611.66,-33.81"/>
<text text-anchor="middle" x="1070" y="-459.92" font-family="Times,serif" font-size="14.00">15</text>
</g>
<!-- D -->
<g id="node4" class="node" pointer-events="visible" data-name="D">

<ellipse fill="none" stroke="black" cx="470" cy="-157.54" rx="34.83" ry="34.83"/>
<text text-anchor="middle" x="470" y="-153.34" font-family="Times,serif" font-size="14.00">City 4</text>
</g>
<!-- A&#45;&gt;D -->
<g id="edge3" class="edge" data-name="A-&gt;D">

<path fill="none" stroke="black" d="M720.59,-887.41C806.18,-874.29 1021,-835.05 1021,-771.69 1021,-771.69 1021,-771.69 1021,-463.12 1021,-419.47 1023.37,-402.67 997,-367.89 930.78,-280.53 886.27,-282.02 783,-245.26 736.74,-228.79 720.09,-244.19 674,-227.26 660.38,-222.26 659.47,-215.85 646,-210.46 612.17,-196.91 601.02,-202.55 566,-192.46 548.44,-187.4 529.42,-180.9 512.96,-174.94"/>
<polygon fill="black" stroke="black" points="514.58,-171.81 503.99,-171.65 512.17,-178.38 514.58,-171.81"/>
<text text-anchor="middle" x="1028" y="-521.23" font-family="Times,serif" font-size="14.00">20</text>
</g>
<!-- E -->
<g id="node5" class="node" pointer-events="visible" data-name="E">

<ellipse fill="none" stroke="black" cx="578" cy="-280.17" rx="34.83" ry="34.83"/>
<text text-anchor="middle" x="578" y="-275.97" font-family="Times,serif" font-size="14.00">City 5</text>
</g>
<!-- A&#45;&gt;E -->
<g id="edge4" class="edge" data-name="A-&gt;E">

<path fill="none" stroke="black" d="M702.96,-862.52C724.76,-822.84 762.15,-749.87 782,-682.98 821.87,-548.61 842.56,-499.73 795,-367.89 768.58,-294.66 700.8,-342.65 628,-315.09 623.53,-313.4 619.07,-311.23 614.75,-308.82"/>
<polygon fill="black" stroke="black" points="616.65,-305.88 606.3,-303.63 612.99,-311.84 616.65,-305.88"/>
<text text-anchor="middle" x="818" y="-582.55" font-family="Times,serif" font-size="14.00">25</text>
</g>
<!-- F -->
<g id="node6" class="node" pointer-events="visible" data-name="F">

<ellipse fill="none" stroke="black" cx="609" cy="-402.8" rx="34.83" ry="34.83"/>
<text text-anchor="middle" x="609" y="-398.6" font-family="Times,serif" font-size="14.00">City 6</text>
</g>
<!-- A&#45;&gt;F -->
<g id="edge5" class="edge" data-name="A-&gt;F">

<path fill="none" stroke="black" d="M682.51,-858.39C674.62,-784.65 653.66,-604.42 623,-455.72 622.46,-453.1 621.86,-450.41 621.23,-447.71"/>
<polygon fill="black" stroke="black" points="624.65,-446.95 618.85,-438.09 617.86,-448.63 624.65,-446.95"/>
<text text-anchor="middle" x="667" y="-643.86" font-family="Times,serif" font-size="14.00">30</text>
</g>
<!-- G -->
<g id="node7" class="node" pointer-events="visible" data-name="G">

<ellipse fill="none" stroke="black" cx="332" cy="-525.43" rx="34.83" ry="34.83"/>
<text text-anchor="middle" x="332" y="-521.23" font-family="Times,serif" font-size="14.00">City 7</text>
</g>
<!-- A&#45;&gt;G -->
<g id="edge6" class="edge" data-name="A-&gt;G">

<path fill="none" stroke="black" d="M650.77,-891.22C539.76,-887.41 202.48,-873.23 167,-840.41 81.44,-761.26 82.81,-668.24 157,-578.35 188.03,-540.75 244.95,-529.59 285.44,-526.67"/>
<polygon fill="black" stroke="black" points="285.61,-530.17 295.4,-526.12 285.22,-523.18 285.61,-530.17"/>
<text text-anchor="middle" x="110" y="-705.18" font-family="Times,serif" font-size="14.00">35</text>
</g>
<!-- H -->
<g id="node8" class="node" pointer-events="visible" data-name="H">

<ellipse fill="none" stroke="black" cx="331" cy="-648.06" rx="34.83" ry="34.83"/>
<text text-anchor="middle" x="331" y="-643.86" font-family="Times,serif" font-size="14.00">City 8</text>
</g>
<!-- A&#45;&gt;H -->
<g id="edge7" class="edge" data-name="A-&gt;H">

<path fill="none" stroke="black" d="M650.98,-891.25C568.28,-888.12 363.62,-876.83 307,-840.41 267.03,-814.7 273.53,-781.89 285,-735.78 289.21,-718.85 297.41,-701.59 305.74,-686.98"/>
<polygon fill="black" stroke="black" points="308.6,-689 310.7,-678.62 302.58,-685.43 308.6,-689"/>
<text text-anchor="middle" x="292" y="-766.49" font-family="Times,serif" font-size="14.00">40</text>
</g>
<!-- B&#45;&gt;A -->
<g id="edge8" class="edge" data-name="B-&gt;A">

<path fill="none" stroke="black" d="M612.04,-805.5C614.53,-817.19 618.53,-829.96 625,-840.41 631.04,-850.16 639.52,-859.02 648.24,-866.55"/>
<polygon fill="black" stroke="black" points="645.81,-869.09 655.79,-872.67 650.22,-863.65 645.81,-869.09"/>
<text text-anchor="middle" x="632" y="-827.81" font-family="Times,serif" font-size="14.00">10</text>
</g>
<!-- B&#45;&gt;C -->
<g id="edge9" class="edge" data-name="B-&gt;C">

<path fill="none" stroke="black" d="M643.19,-770.16C704.14,-768.9 828.96,-756.83 893,-682.98 995.25,-565.05 979,-498.57 979,-342.49 979,-342.49 979,-342.49 979,-156.54 979,-80.61 719.04,-49.27 611.11,-39.53"/>
<polygon fill="black" stroke="black" points="611.72,-36.07 601.45,-38.69 611.1,-43.05 611.72,-36.07"/>
<text text-anchor="middle" x="986" y="-398.6" font-family="Times,serif" font-size="14.00">35</text>
</g>
<!-- B&#45;&gt;D -->
<g id="edge10" class="edge" data-name="B-&gt;D">

<path fill="none" stroke="black" d="M643.06,-766.87C684.7,-762.14 754.95,-749.75 806,-717.78 866.81,-679.69 884.2,-661.71 911,-595.15 932.76,-541.1 940.3,-377.85 903,-333.09 888.15,-315.27 875.56,-323.66 854,-315.09 761.89,-278.47 737.26,-272.38 649,-227.26 636.08,-220.65 634.2,-216.49 621,-210.46 597.6,-199.78 590.35,-200.74 566,-192.46 548.7,-186.57 529.72,-179.91 513.24,-174.06"/>
<polygon fill="black" stroke="black" points="514.83,-170.91 504.24,-170.86 512.49,-177.51 514.83,-170.91"/>
<text text-anchor="middle" x="936" y="-459.92" font-family="Times,serif" font-size="14.00">25</text>
</g>
<!-- B&#45;&gt;E -->
<g id="edge11" class="edge" data-name="B-&gt;E">

<path fill="none" stroke="black" d="M641.09,-759.11C675.28,-746.45 727.66,-721.95 757,-682.98 783.25,-648.11 781,-631.4 781,-587.75 781,-587.75 781,-587.75 781,-401.8 781,-367.33 773.05,-353.13 745,-333.09 702.19,-302.5 676.97,-334.33 628,-315.09 623.55,-313.34 619.1,-311.14 614.8,-308.71"/>
<polygon fill="black" stroke="black" points="616.7,-305.77 606.35,-303.49 613.02,-311.72 616.7,-305.77"/>
<text text-anchor="middle" x="788" y="-521.23" font-family="Times,serif" font-size="14.00">30</text>
</g>
<!-- B&#45;&gt;F -->
<g id="edge12" class="edge" data-name="B-&gt;F">

<path fill="none" stroke="black" d="M596.39,-737.41C584.11,-699.56 567.24,-634.79 573,-578.35 577.59,-533.35 588.68,-482.83 597.34,-447.77"/>
<polygon fill="black" stroke="black" points="600.65,-448.97 599.69,-438.42 593.86,-447.27 600.65,-448.97"/>
<text text-anchor="middle" x="580" y="-582.55" font-family="Times,serif" font-size="14.00">15</text>
</g>
<!-- B&#45;&gt;G -->
<g id="edge13" class="edge" data-name="B-&gt;G">

<path fill="none" stroke="black" d="M582,-747.21C572.45,-738.43 561.83,-728.02 553,-717.78 503.73,-660.58 514.71,-625.8 456,-578.35 432.76,-559.56 401.74,-546.58 376.54,-538.3"/>
<polygon fill="black" stroke="black" points="377.82,-535.03 367.23,-535.38 375.72,-541.71 377.82,-535.03"/>
<text text-anchor="middle" x="535" y="-643.86" font-family="Times,serif" font-size="14.00">20</text>
</g>
<!-- B&#45;&gt;H -->
<g id="edge14" class="edge" data-name="B-&gt;H">

<path fill="none" stroke="black" d="M573.35,-764.65C533.86,-757.93 468.17,-743.76 417,-717.78 411.22,-714.84 387.43,-695.73 366.33,-678.41"/>
<polygon fill="black" stroke="black" points="368.62,-675.76 358.68,-672.11 364.17,-681.17 368.62,-675.76"/>
<text text-anchor="middle" x="424" y="-705.18" font-family="Times,serif" font-size="14.00">25</text>
</g>
<!-- C&#45;&gt;A -->
<g id="edge15" class="edge" data-name="C-&gt;A">

<path fill="none" stroke="black" d="M600.17,-36.28C719.41,-38.47 1101,-53.53 1101,-156.54 1101,-771.69 1101,-771.69 1101,-771.69 1101,-847.8 840.41,-879.03 732.22,-888.72"/>
<polygon fill="black" stroke="black" points="732.19,-885.21 722.53,-889.57 732.8,-892.19 732.19,-885.21"/>
<text text-anchor="middle" x="1108" y="-459.92" font-family="Times,serif" font-size="14.00">15</text>
</g>
<!-- C&#45;&gt;B -->
<g id="edge16" class="edge" data-name="C-&gt;B">

<path fill="none" stroke="black" d="M529.75,-36.91C430.81,-40.14 152.29,-52.22 69,-87.83 29.21,-104.84 0,-113.26 0,-156.54 0,-342.49 0,-342.49 0,-342.49 0,-442.57 10.46,-471.74 57,-560.35 66.5,-578.43 70.63,-582.94 87,-595.15 193.63,-674.66 232.24,-680.76 360,-717.78 414.33,-733.52 430.63,-724.18 486,-735.78 512.07,-741.24 540.8,-749.13 563.82,-755.93"/>
<polygon fill="black" stroke="black" points="562.59,-759.21 573.18,-758.72 564.6,-752.51 562.59,-759.21"/>
<text text-anchor="middle" x="14" y="-398.6" font-family="Times,serif" font-size="14.00">35</text>
</g>
<!-- C&#45;&gt;D -->
<g id="edge17" class="edge" data-name="C-&gt;D">

<path fill="none" stroke="black" d="M543.75,-62.9C530.38,-79.87 512.97,-101.99 498.42,-120.46"/>
<polygon fill="black" stroke="black" points="495.69,-118.26 492.26,-128.28 501.19,-122.59 495.69,-118.26"/>
<text text-anchor="middle" x="531" y="-92.03" font-family="Times,serif" font-size="14.00">30</text>
</g>
<!-- C&#45;&gt;E -->
<g id="edge18" class="edge" data-name="C-&gt;E">

<path fill="none" stroke="black" d="M566.83,-70.16C569.11,-112.91 573.03,-186.17 575.57,-233.62"/>
<polygon fill="black" stroke="black" points="572.07,-233.78 576.1,-243.58 579.06,-233.41 572.07,-233.78"/>
<text text-anchor="middle" x="581" y="-153.34" font-family="Times,serif" font-size="14.00">20</text>
</g>
<!-- C&#45;&gt;F -->
<g id="edge19" class="edge" data-name="C-&gt;F">

<path fill="none" stroke="black" d="M586.16,-63.04C597.39,-79.3 609.89,-100.98 615,-122.63 634.68,-205.93 628.36,-229.73 622,-315.09 620.98,-328.71 619.08,-343.43 617.04,-356.81"/>
<polygon fill="black" stroke="black" points="613.59,-356.25 615.47,-366.67 620.5,-357.35 613.59,-356.25"/>
<text text-anchor="middle" x="636" y="-214.66" font-family="Times,serif" font-size="14.00">25</text>
</g>
<!-- C&#45;&gt;G -->
<g id="edge20" class="edge" data-name="C-&gt;G">

<path fill="none" stroke="black" d="M533.03,-48.85C473.12,-75.19 346.08,-141.48 303,-245.26 270.25,-324.16 295.95,-425.92 315.41,-482.23"/>
<polygon fill="black" stroke="black" points="312.04,-483.19 318.69,-491.44 318.63,-480.84 312.04,-483.19"/>
<text text-anchor="middle" x="310" y="-275.97" font-family="Times,serif" font-size="14.00">10</text>
</g>
<!-- C&#45;&gt;H -->
<g id="edge21" class="edge" data-name="C-&gt;H">

<path fill="none" stroke="black" d="M529.98,-36.68C435.65,-39.23 178.42,-49.61 104,-87.83 67.41,-106.62 42,-115.41 42,-156.54 42,-342.49 42,-342.49 42,-342.49 42,-400.3 60.61,-556.95 104,-595.15 130.53,-618.5 228.09,-603.21 262,-613.15 271.68,-615.99 281.66,-620.1 290.91,-624.5"/>
<polygon fill="black" stroke="black" points="289.13,-627.52 299.64,-628.85 292.25,-621.26 289.13,-627.52"/>
<text text-anchor="middle" x="46.5" y="-337.29" font-family="Times,serif" font-size="14.00">5</text>
</g>
<!-- D&#45;&gt;A -->
<g id="edge22" class="edge" data-name="D-&gt;A">

<path fill="none" stroke="black" d="M435.21,-160.51C383.29,-164.5 283.34,-176.31 206,-210.46 182.22,-220.96 177.24,-226.74 159,-245.26 125.29,-279.48 118.72,-290.76 96,-333.09 39.18,-438.93 0,-465.62 0,-585.75 0,-771.69 0,-771.69 0,-771.69 0,-843.81 77.43,-821.4 147,-840.41 324.2,-888.81 544.9,-893.57 639.47,-893.11"/>
<polygon fill="black" stroke="black" points="639.41,-896.61 649.38,-893.04 639.36,-889.61 639.41,-896.61"/>
<text text-anchor="middle" x="19" y="-521.23" font-family="Times,serif" font-size="14.00">20</text>
</g>
<!-- D&#45;&gt;B -->
<g id="edge23" class="edge" data-name="D-&gt;B">

<path fill="none" stroke="black" d="M501.73,-172.58C533.97,-187.75 584.4,-213.98 622,-245.26 653.24,-271.24 645.38,-295.54 681,-315.09 733.29,-343.79 761.12,-305.5 814,-333.09 866.49,-360.47 857.24,-397.17 866,-455.72 887.19,-597.28 878.75,-587.64 875,-595.15 869.04,-607.07 861.05,-604.38 851,-613.15 818.12,-641.83 813.43,-652.72 782,-682.98 765.5,-698.86 763.49,-705.75 744,-717.78 715.55,-735.34 680.19,-748.61 652.66,-757.34"/>
<polygon fill="black" stroke="black" points="651.74,-753.96 643.21,-760.24 653.8,-760.65 651.74,-753.96"/>
<text text-anchor="middle" x="875" y="-459.92" font-family="Times,serif" font-size="14.00">25</text>
</g>
<!-- D&#45;&gt;C -->
<g id="edge24" class="edge" data-name="D-&gt;C">

<path fill="none" stroke="black" d="M477.27,-123.11C480.96,-111.2 486.33,-98.19 494,-87.83 502.38,-76.52 513.93,-66.62 525.29,-58.59"/>
<polygon fill="black" stroke="black" points="527.08,-61.6 533.44,-53.13 523.19,-55.78 527.08,-61.6"/>
<text text-anchor="middle" x="501" y="-92.03" font-family="Times,serif" font-size="14.00">30</text>
</g>
<!-- D&#45;&gt;E -->
<g id="edge25" class="edge" data-name="D-&gt;E">

<path fill="none" stroke="black" d="M483.69,-189.78C490.03,-202.22 498.3,-216.18 508,-227.26 516.94,-237.47 528.21,-246.91 539.08,-254.85"/>
<polygon fill="black" stroke="black" points="537.03,-257.68 547.22,-260.56 541.05,-251.95 537.03,-257.68"/>
<text text-anchor="middle" x="515" y="-214.66" font-family="Times,serif" font-size="14.00">10</text>
</g>
<!-- D&#45;&gt;F -->
<g id="edge26" class="edge" data-name="D-&gt;F">

<path fill="none" stroke="black" d="M452.04,-187.93C429.86,-228.42 399.18,-301.82 435,-349.89 439,-355.25 514.13,-376.31 564.34,-389.9"/>
<polygon fill="black" stroke="black" points="563.24,-393.23 573.81,-392.45 565.06,-386.47 563.24,-393.23"/>
<text text-anchor="middle" x="430.5" y="-275.97" font-family="Times,serif" font-size="14.00">5</text>
</g>
<!-- D&#45;&gt;G -->
<g id="edge27" class="edge" data-name="D-&gt;G">

<path fill="none" stroke="black" d="M435.97,-166.12C411.6,-173.35 380.01,-186.78 362,-210.46 301.97,-289.41 311.87,-413.81 322.79,-479.83"/>
<polygon fill="black" stroke="black" points="319.33,-480.33 324.5,-489.58 326.22,-479.12 319.33,-480.33"/>
<text text-anchor="middle" x="325" y="-337.29" font-family="Times,serif" font-size="14.00">15</text>
</g>
<!-- D&#45;&gt;H -->
<g id="edge28" class="edge" data-name="D-&gt;H">

<path fill="none" stroke="black" d="M435.32,-164.04C366.52,-175.72 216.74,-205.25 186,-245.26 138.55,-307.03 155.74,-536.5 207,-595.15 223.93,-614.51 238.18,-603.45 262,-613.15 271.34,-616.95 281.18,-621.46 290.41,-625.94"/>
<polygon fill="black" stroke="black" points="288.64,-628.96 299.15,-630.26 291.74,-622.69 288.64,-628.96"/>
<text text-anchor="middle" x="168" y="-398.6" font-family="Times,serif" font-size="14.00">20</text>
</g>
<!-- E&#45;&gt;A -->
<g id="edge29" class="edge" data-name="E-&gt;A">

<path fill="none" stroke="black" d="M604.97,-302.93C612.09,-307.68 620.03,-312.15 628,-315.09 710.64,-345.54 783.26,-287.39 819,-367.89 898.63,-547.25 857.59,-634.78 761,-805.61 749.68,-825.64 733.29,-845.26 718.72,-860.76"/>
<polygon fill="black" stroke="black" points="716.32,-858.2 711.9,-867.83 721.36,-863.05 716.32,-858.2"/>
<text text-anchor="middle" x="864" y="-582.55" font-family="Times,serif" font-size="14.00">25</text>
</g>
<!-- E&#45;&gt;B -->
<g id="edge30" class="edge" data-name="E-&gt;B">

<path fill="none" stroke="black" d="M603.1,-304.79C633.86,-335.84 683.76,-393.78 699,-455.72 700.78,-462.97 700.11,-465.13 699,-472.52 685,-566.07 647.5,-670.86 625.25,-727.62"/>
<polygon fill="black" stroke="black" points="622,-726.32 621.57,-736.9 628.51,-728.9 622,-726.32"/>
<text text-anchor="middle" x="702" y="-521.23" font-family="Times,serif" font-size="14.00">30</text>
</g>
<!-- E&#45;&gt;C -->
<g id="edge31" class="edge" data-name="E-&gt;C">

<path fill="none" stroke="black" d="M585.71,-245.77C586.94,-239.64 588.11,-233.27 589,-227.26 598.11,-165.91 600.94,-147.2 583,-87.83 582.12,-84.93 581.19,-81.96 580.22,-78.97"/>
<polygon fill="black" stroke="black" points="583.59,-78.01 577.12,-69.62 576.95,-80.21 583.59,-78.01"/>
<text text-anchor="middle" x="604" y="-153.34" font-family="Times,serif" font-size="14.00">20</text>
</g>
<!-- E&#45;&gt;D -->
<g id="edge32" class="edge" data-name="E-&gt;D">

<path fill="none" stroke="black" d="M557.08,-252.21C546.81,-239.32 534.07,-223.82 522,-210.46 515.99,-203.81 509.35,-196.89 502.89,-190.36"/>
<polygon fill="black" stroke="black" points="505.48,-188 495.94,-183.41 500.54,-192.95 505.48,-188"/>
<text text-anchor="middle" x="544" y="-214.66" font-family="Times,serif" font-size="14.00">10</text>
</g>
<!-- E&#45;&gt;F -->
<g id="edge33" class="edge" data-name="E-&gt;F">

<path fill="none" stroke="black" d="M588.49,-313.73C590.42,-320.12 592.35,-326.79 594,-333.09 596.05,-340.87 598.03,-349.21 599.86,-357.29"/>
<polygon fill="black" stroke="black" points="596.42,-357.97 601.99,-366.99 603.26,-356.47 596.42,-357.97"/>
<text text-anchor="middle" x="605" y="-337.29" font-family="Times,serif" font-size="14.00">15</text>
</g>
<!-- E&#45;&gt;G -->
<g id="edge34" class="edge" data-name="E-&gt;G">

<path fill="none" stroke="black" d="M553.25,-304.59C548.42,-308.44 543.23,-312.13 538,-315.09 516.35,-327.35 507.45,-322.36 485,-333.09 458.9,-345.56 450.57,-347.55 430,-367.89 421.73,-376.07 379.15,-445.84 373,-455.72 367.12,-465.17 360.9,-475.44 355.13,-485.09"/>
<polygon fill="black" stroke="black" points="352.2,-483.18 350.09,-493.56 358.21,-486.76 352.2,-483.18"/>
<text text-anchor="middle" x="437" y="-398.6" font-family="Times,serif" font-size="14.00">25</text>
</g>
<!-- E&#45;&gt;H -->
<g id="edge35" class="edge" data-name="E-&gt;H">

<path fill="none" stroke="black" d="M567.34,-313.57C556.63,-345.44 539.28,-395.36 522,-437.72 515.57,-453.48 518.38,-460.84 506,-472.52 490.03,-487.59 476.31,-475.82 460,-490.52 421.13,-525.56 440.54,-555.84 406,-595.15 396.1,-606.41 383.27,-616.45 371.02,-624.62"/>
<polygon fill="black" stroke="black" points="369.21,-621.62 362.67,-629.95 372.98,-627.52 369.21,-621.62"/>
<text text-anchor="middle" x="524" y="-459.92" font-family="Times,serif" font-size="14.00">30</text>
</g>
<!-- F&#45;&gt;A -->
<g id="edge36" class="edge" data-name="F-&gt;A">

<path fill="none" stroke="black" d="M627.14,-432.93C631.32,-440.23 635.54,-448.14 639,-455.72 645.79,-470.6 646.57,-474.77 651,-490.52 691.43,-634.15 687.69,-674.49 693,-823.61 693.27,-831.07 693.5,-832.96 693,-840.41 692.85,-842.62 692.67,-844.88 692.46,-847.16"/>
<polygon fill="black" stroke="black" points="688.98,-846.77 691.38,-857.09 695.94,-847.53 688.98,-846.77"/>
<text text-anchor="middle" x="694" y="-643.86" font-family="Times,serif" font-size="14.00">30</text>
</g>
<!-- F&#45;&gt;B -->
<g id="edge37" class="edge" data-name="F-&gt;B">

<path fill="none" stroke="black" d="M608.91,-437.94C608.73,-504.16 608.33,-650.04 608.12,-724.32"/>
<polygon fill="black" stroke="black" points="604.62,-724.08 608.1,-734.09 611.62,-724.1 604.62,-724.08"/>
<text text-anchor="middle" x="616" y="-582.55" font-family="Times,serif" font-size="14.00">15</text>
</g>
<!-- F&#45;&gt;C -->
<g id="edge38" class="edge" data-name="F-&gt;C">

<path fill="none" stroke="black" d="M625.41,-371.69C628.68,-364.69 631.78,-357.16 634,-349.89 663.44,-253.27 663.7,-219.77 636,-122.63 631.33,-106.26 629.93,-101.66 620,-87.83 614.33,-79.93 607.34,-72.26 600.27,-65.35"/>
<polygon fill="black" stroke="black" points="602.8,-62.92 593.11,-58.64 598.02,-68.03 602.8,-62.92"/>
<text text-anchor="middle" x="663" y="-214.66" font-family="Times,serif" font-size="14.00">25</text>
</g>
<!-- F&#45;&gt;D -->
<g id="edge39" class="edge" data-name="F-&gt;D">

<path fill="none" stroke="black" d="M582.91,-379.28C565.23,-362.91 542.38,-339.44 527,-315.09 504.96,-280.2 489.78,-235.57 480.66,-202.9"/>
<polygon fill="black" stroke="black" points="484.07,-202.08 478.08,-193.34 477.31,-203.91 484.07,-202.08"/>
<text text-anchor="middle" x="530.5" y="-275.97" font-family="Times,serif" font-size="14.00">5</text>
</g>
<!-- F&#45;&gt;E -->
<g id="edge40" class="edge" data-name="F-&gt;E">

<path fill="none" stroke="black" d="M587.72,-374.65C582.92,-367.05 578.51,-358.5 576,-349.89 573.83,-342.42 572.89,-334.3 572.7,-326.35"/>
<polygon fill="black" stroke="black" points="576.2,-326.48 572.87,-316.42 569.2,-326.36 576.2,-326.48"/>
<text text-anchor="middle" x="583" y="-337.29" font-family="Times,serif" font-size="14.00">15</text>
</g>
<!-- F&#45;&gt;G -->
<g id="edge41" class="edge" data-name="F-&gt;G">

<path fill="none" stroke="black" d="M576.31,-416.12C552.33,-425.68 519.32,-439.92 492,-455.72 481.04,-462.05 480.13,-466.49 469,-472.52 439.42,-488.55 403.83,-501.87 376.34,-511.01"/>
<polygon fill="black" stroke="black" points="375.34,-507.65 366.92,-514.07 377.51,-514.31 375.34,-507.65"/>
<text text-anchor="middle" x="499" y="-459.92" font-family="Times,serif" font-size="14.00">20</text>
</g>
<!-- F&#45;&gt;H -->
<g id="edge42" class="edge" data-name="F-&gt;H">

<path fill="none" stroke="black" d="M594.09,-434.72C587.19,-447.25 578.24,-461.36 568,-472.52 558.74,-482.61 551.07,-479.46 543,-490.52 514.17,-530.01 546.05,-563.24 509,-595.15 472.12,-626.9 447.37,-598.39 401,-613.15 391.18,-616.27 381,-620.55 371.54,-625.01"/>
<polygon fill="black" stroke="black" points="370.02,-621.86 362.59,-629.41 373.11,-628.14 370.02,-621.86"/>
<text text-anchor="middle" x="550" y="-521.23" font-family="Times,serif" font-size="14.00">25</text>
</g>
<!-- G&#45;&gt;A -->
<g id="edge43" class="edge" data-name="G-&gt;A">

<path fill="none" stroke="black" d="M313.69,-555.41C275.92,-619.07 199.76,-770.95 285,-840.41 338.43,-883.94 545.8,-891.24 639.54,-892.27"/>
<polygon fill="black" stroke="black" points="639.38,-895.77 649.41,-892.36 639.44,-888.77 639.38,-895.77"/>
<text text-anchor="middle" x="259" y="-705.18" font-family="Times,serif" font-size="14.00">35</text>
</g>
<!-- G&#45;&gt;B -->
<g id="edge44" class="edge" data-name="G-&gt;B">

<path fill="none" stroke="black" d="M352.77,-553.64C378.71,-586.57 425.47,-642.6 473,-682.98 502.49,-708.04 539.74,-731.44 567.63,-747.6"/>
<polygon fill="black" stroke="black" points="565.72,-750.54 576.14,-752.46 569.2,-744.46 565.72,-750.54"/>
<text text-anchor="middle" x="480" y="-643.86" font-family="Times,serif" font-size="14.00">20</text>
</g>
<!-- G&#45;&gt;C -->
<g id="edge45" class="edge" data-name="G-&gt;C">

<path fill="none" stroke="black" d="M313.24,-495.97C303.42,-479.61 292.18,-458.28 286,-437.72 261.29,-355.52 250.09,-328.75 270,-245.26 284.16,-185.85 286.47,-163.33 332,-122.63 385.7,-74.62 468.4,-52.36 519.47,-42.67"/>
<polygon fill="black" stroke="black" points="519.78,-46.17 529,-40.95 518.54,-39.28 519.78,-46.17"/>
<text text-anchor="middle" x="277" y="-275.97" font-family="Times,serif" font-size="14.00">10</text>
</g>
<!-- G&#45;&gt;D -->
<g id="edge46" class="edge" data-name="G-&gt;D">

<path fill="none" stroke="black" d="M340.23,-491.27C353.69,-438.46 382.23,-332.33 415,-245.26 421,-229.33 422.28,-225.08 431,-210.46 434.18,-205.13 437.79,-199.7 441.5,-194.45"/>
<polygon fill="black" stroke="black" points="444.25,-196.62 447.33,-186.49 438.6,-192.49 444.25,-196.62"/>
<text text-anchor="middle" x="392" y="-337.29" font-family="Times,serif" font-size="14.00">15</text>
</g>
<!-- G&#45;&gt;E -->
<g id="edge47" class="edge" data-name="G-&gt;E">

<path fill="none" stroke="black" d="M353.24,-497.22C365.19,-483.33 381.09,-467.03 398,-455.72 416.25,-443.52 427.7,-452.42 444,-437.72 469.93,-414.33 460.47,-396.83 480,-367.89 491.42,-350.96 494.59,-346.48 510,-333.09 521.17,-323.39 526.11,-323.89 538,-315.09 539.76,-313.79 541.53,-312.43 543.32,-311.05"/>
<polygon fill="black" stroke="black" points="545.38,-313.88 550.97,-304.89 540.99,-308.43 545.38,-313.88"/>
<text text-anchor="middle" x="487" y="-398.6" font-family="Times,serif" font-size="14.00">25</text>
</g>
<!-- G&#45;&gt;F -->
<g id="edge48" class="edge" data-name="G-&gt;F">

<path fill="none" stroke="black" d="M363.76,-510.4C384,-500.88 410.39,-487.35 432,-472.52 441.29,-466.14 441.22,-461.33 451,-455.72 486.4,-435.42 530.87,-421.71 563.61,-413.5"/>
<polygon fill="black" stroke="black" points="564.3,-416.93 573.19,-411.18 562.65,-410.13 564.3,-416.93"/>
<text text-anchor="middle" x="458" y="-459.92" font-family="Times,serif" font-size="14.00">20</text>
</g>
<!-- G&#45;&gt;H -->
<g id="edge49" class="edge" data-name="G-&gt;H">

<path fill="none" stroke="black" d="M332.95,-560.69C333.14,-571.69 333.22,-583.94 333,-595.15 332.96,-597.31 332.91,-599.53 332.85,-601.76"/>
<polygon fill="black" stroke="black" points="329.36,-601.38 332.55,-611.49 336.35,-601.6 329.36,-601.38"/>
<text text-anchor="middle" x="341" y="-582.55" font-family="Times,serif" font-size="14.00">10</text>
</g>
<!-- H&#45;&gt;A -->
<g id="edge50" class="edge" data-name="H-&gt;A">

<path fill="none" stroke="black" d="M338.87,-682.45C343.01,-694.62 349.13,-707.83 358,-717.78 437.04,-806.45 572.09,-857.87 641.67,-879.75"/>
<polygon fill="black" stroke="black" points="640.22,-882.96 650.81,-882.56 642.28,-876.27 640.22,-882.96"/>
<text text-anchor="middle" x="475" y="-766.49" font-family="Times,serif" font-size="14.00">40</text>
</g>
<!-- H&#45;&gt;B -->
<g id="edge51" class="edge" data-name="H-&gt;B">

<path fill="none" stroke="black" d="M345.55,-680.14C353.37,-693.63 364.25,-708.44 378,-717.78 433.5,-755.46 512.18,-766.17 561.63,-769"/>
<polygon fill="black" stroke="black" points="561.27,-772.49 571.42,-769.47 561.6,-765.5 561.27,-772.49"/>
<text text-anchor="middle" x="385" y="-705.18" font-family="Times,serif" font-size="14.00">25</text>
</g>
<!-- H&#45;&gt;C -->
<g id="edge52" class="edge" data-name="H-&gt;C">

<path fill="none" stroke="black" d="M300.68,-630.49C288.85,-624.46 275.02,-617.96 262,-613.15 191.93,-587.23 118,-601.14 118,-526.43 118,-526.43 118,-526.43 118,-156.54 118,-74.17 404.53,-46.37 518.78,-38.56"/>
<polygon fill="black" stroke="black" points="518.67,-42.08 528.41,-37.93 518.21,-35.1 518.67,-42.08"/>
<text text-anchor="middle" x="121.5" y="-337.29" font-family="Times,serif" font-size="14.00">5</text>
</g>
<!-- H&#45;&gt;D -->
<g id="edge53" class="edge" data-name="H-&gt;D">

<path fill="none" stroke="black" d="M307.65,-621.9C277.73,-586.63 230.95,-519.62 242,-455.72 258.91,-357.87 266.37,-330.68 317,-245.26 327.56,-227.44 331.17,-222.54 348,-210.46 371.59,-193.52 401.57,-180.67 425.9,-171.99"/>
<polygon fill="black" stroke="black" points="426.89,-175.35 435.21,-168.79 424.61,-168.73 426.89,-175.35"/>
<text text-anchor="middle" x="267" y="-398.6" font-family="Times,serif" font-size="14.00">20</text>
</g>
<!-- H&#45;&gt;E -->
<g id="edge54" class="edge" data-name="H-&gt;E">

<path fill="none" stroke="black" d="M347.81,-617.03C356.73,-600.55 367.55,-579.61 376,-560.35 395.88,-515.04 376.87,-488.41 414,-455.72 441.35,-431.64 466.25,-461.35 494,-437.72 519.46,-416.04 506.64,-397.59 522,-367.89 530.71,-351.04 541.79,-333.31 551.79,-318.3"/>
<polygon fill="black" stroke="black" points="554.62,-320.36 557.32,-310.12 548.82,-316.44 554.62,-320.36"/>
<text text-anchor="middle" x="421" y="-459.92" font-family="Times,serif" font-size="14.00">30</text>
</g>
<!-- H&#45;&gt;F -->
<g id="edge55" class="edge" data-name="H-&gt;F">

<path fill="none" stroke="black" d="M362.3,-631.73C391.47,-617.37 430.94,-597.73 434,-595.15 478.1,-557.88 467.76,-528.78 511,-490.52 523.22,-479.71 530.1,-482.51 543,-472.52 555.94,-462.49 568.74,-449.95 579.58,-438.33"/>
<polygon fill="black" stroke="black" points="581.92,-440.95 586.07,-431.2 576.75,-436.24 581.92,-440.95"/>
<text text-anchor="middle" x="518" y="-521.23" font-family="Times,serif" font-size="14.00">25</text>
</g>
<!-- H&#45;&gt;G -->
<g id="edge56" class="edge" data-name="H-&gt;G">

<path fill="none" stroke="black" d="M318.36,-615.43C315.13,-603.84 313.05,-590.56 315,-578.35 315.47,-575.38 316.09,-572.35 316.81,-569.31"/>
<polygon fill="black" stroke="black" points="320.12,-570.47 319.38,-559.9 313.37,-568.63 320.12,-570.47"/>
<text text-anchor="middle" x="322" y="-582.55" font-family="Times,serif" font-size="14.00">10</text>
</g>
</g>
</svg>