<?xml version="1.0" standalone="no"?>
<svg xmlns="http://www.w3.org/2000/svg" xmlns:xlink="http://www.w3.org/1999/xlink" width="451pt" height="593pt" viewBox="0.00 0.00 451.00 593.15">
<g id="graph0" class="graph" transform="translate(4,589.1500244140625) scale(1)" data-name="G">

<polygon fill="white" stroke="none" points="-4,4 -4,-589.15 447,-589.15 447,4 -4,4"/>
<text text-anchor="middle" x="221.5" y="-568.55" font-family="Times,serif" font-size="14.00">Distance Matrix for TSP</text>
<!-- A -->
<g id="node1" class="node" pointer-events="visible" data-name="A">

<ellipse fill="none" stroke="black" cx="164" cy="-525.43" rx="34.83" ry="34.83"/>
<text text-anchor="middle" x="164" y="-521.23" font-family="Times,serif" font-size="14.00">City 1</text>
</g>
<!-- B -->
<g id="node2" class="node" pointer-events="visible" data-name="B">

<ellipse fill="none" stroke="black" cx="220" cy="-402.8" rx="34.83" ry="34.83"/>
<text text-anchor="middle" x="220" y="-398.6" font-family="Times,serif" font-size="14.00">City 2</text>
</g>
<!-- A&#45;&gt;B -->
<g id="edge1" class="edge" data-name="A-&gt;B">

<path fill="none" stroke="black" d="M170.17,-490.69C172.95,-479.26 176.81,-466.63 182,-455.72 184.64,-450.17 187.9,-444.61 191.39,-439.3"/>
<polygon fill="black" stroke="black" points="194.12,-441.51 196.97,-431.31 188.38,-437.5 194.12,-441.51"/>
<text text-anchor="middle" x="189" y="-459.92" font-family="Times,serif" font-size="14.00">10</text>
</g>
<!-- C -->
<g id="node3" class="node" pointer-events="visible" data-name="C">

<ellipse fill="none" stroke="black" cx="162" cy="-34.91" rx="34.83" ry="34.83"/>
<text text-anchor="middle" x="162" y="-30.71" font-family="Times,serif" font-size="14.00">City 3</text>
</g>
<!-- A&#45;&gt;C -->
<g id="edge2" class="edge" data-name="A-&gt;C">

<path fill="none" stroke="black" d="M129.76,-517.46C101.75,-510.27 62.55,-496.61 36,-472.52 10.46,-449.35 0,-438.28 0,-403.8 0,-403.8 0,-403.8 0,-156.54 0,-122.07 10.53,-111.06 36,-87.83 58.71,-67.11 90.83,-54.05 116.95,-46.21"/>
<polygon fill="black" stroke="black" points="117.61,-49.66 126.28,-43.58 115.7,-42.93 117.61,-49.66"/>
<text text-anchor="middle" x="7" y="-275.97" font-family="Times,serif" font-size="14.00">15</text>
</g>
<!-- D -->
<g id="node4" class="node" pointer-events="visible" data-name="D">

<ellipse fill="none" stroke="black" cx="219" cy="-157.54" rx="34.83" ry="34.83"/>
<text text-anchor="middle" x="219" y="-153.34" font-family="Times,serif" font-size="14.00">City 4</text>
</g>
<!-- A&#45;&gt;D -->
<g id="edge3" class="edge" data-name="A-&gt;D">

<path fill="none" stroke="black" d="M198.99,-521.02C253.58,-514.89 355.03,-500.03 377,-472.52 449.7,-381.51 446.04,-301.99 374,-210.46 348.18,-177.66 300.87,-165.41 265.28,-160.93"/>
<polygon fill="black" stroke="black" points="266,-157.49 255.68,-159.89 265.25,-164.45 266,-157.49"/>
<text text-anchor="middle" x="436" y="-337.29" font-family="Times,serif" font-size="14.00">20</text>
</g>
<!-- E -->
<g id="node5" class="node" pointer-events="visible" data-name="E">

<ellipse fill="none" stroke="black" cx="122" cy="-280.17" rx="34.83" ry="34.83"/>
<text text-anchor="middle" x="122" y="-275.97" font-family="Times,serif" font-size="14.00">City 5</text>
</g>
<!-- A&#45;&gt;E -->
<g id="edge4" class="edge" data-name="A-&gt;E">

<path fill="none" stroke="black" d="M141.96,-497.82C129.95,-481.56 116.29,-459.72 110,-437.72 99.46,-400.84 104.13,-357.2 110.48,-325.38"/>
<polygon fill="black" stroke="black" points="113.88,-326.22 112.55,-315.71 107.03,-324.75 113.88,-326.22"/>
<text text-anchor="middle" x="117" y="-398.6" font-family="Times,serif" font-size="14.00">25</text>
</g>
<!-- B&#45;&gt;A -->
<g id="edge5" class="edge" data-name="B-&gt;A">

<path fill="none" stroke="black" d="M210.17,-436.54C206.28,-448.13 201.43,-461.11 196,-472.52 193.84,-477.05 191.39,-481.68 188.82,-486.23"/>
<polygon fill="black" stroke="black" points="185.92,-484.26 183.85,-494.65 191.95,-487.81 185.92,-484.26"/>
<text text-anchor="middle" x="210" y="-459.92" font-family="Times,serif" font-size="14.00">10</text>
</g>
<!-- B&#45;&gt;C -->
<g id="edge6" class="edge" data-name="B-&gt;C">

<path fill="none" stroke="black" d="M245.41,-378.4C250.09,-374.64 255.06,-370.98 260,-367.89 276.88,-357.34 289.85,-366.37 301,-349.89 366.27,-253.42 368.96,-182.42 301,-87.83 279.85,-58.39 239.95,-45.63 208.31,-40.11"/>
<polygon fill="black" stroke="black" points="208.98,-36.67 198.57,-38.61 207.92,-43.59 208.98,-36.67"/>
<text text-anchor="middle" x="357" y="-214.66" font-family="Times,serif" font-size="14.00">35</text>
</g>
<!-- B&#45;&gt;D -->
<g id="edge7" class="edge" data-name="B-&gt;D">

<path fill="none" stroke="black" d="M214.72,-368.13C212.47,-352.11 210.11,-332.66 209,-315.09 207.04,-284.12 207.22,-276.24 209,-245.26 209.78,-231.69 211.24,-216.97 212.81,-203.59"/>
<polygon fill="black" stroke="black" points="216.28,-204.09 214.02,-193.74 209.33,-203.24 216.28,-204.09"/>
<text text-anchor="middle" x="216" y="-275.97" font-family="Times,serif" font-size="14.00">25</text>
</g>
<!-- B&#45;&gt;E -->
<g id="edge8" class="edge" data-name="B-&gt;E">

<path fill="none" stroke="black" d="M200.25,-373.92C191.03,-361.24 179.74,-346.18 169,-333.09 164.08,-327.09 158.69,-320.85 153.37,-314.87"/>
<polygon fill="black" stroke="black" points="156,-312.56 146.71,-307.48 150.8,-317.25 156,-312.56"/>
<text text-anchor="middle" x="189" y="-337.29" font-family="Times,serif" font-size="14.00">30</text>
</g>
<!-- C&#45;&gt;A -->
<g id="edge9" class="edge" data-name="C-&gt;A">

<path fill="none" stroke="black" d="M131.1,-52.03C97.95,-71.81 50,-108.68 50,-156.54 50,-403.8 50,-403.8 50,-403.8 50,-447.81 90.56,-482.23 123.3,-502.85"/>
<polygon fill="black" stroke="black" points="121.48,-505.85 131.85,-508.02 125.1,-499.86 121.48,-505.85"/>
<text text-anchor="middle" x="57" y="-275.97" font-family="Times,serif" font-size="14.00">15</text>
</g>
<!-- C&#45;&gt;B -->
<g id="edge10" class="edge" data-name="C-&gt;B">

<path fill="none" stroke="black" d="M192.65,-52.3C216.77,-67.1 248.62,-91.34 263,-122.63 299.26,-201.54 264.78,-304.87 240.07,-361.07"/>
<polygon fill="black" stroke="black" points="236.99,-359.4 236.06,-369.95 243.37,-362.28 236.99,-359.4"/>
<text text-anchor="middle" x="285" y="-214.66" font-family="Times,serif" font-size="14.00">35</text>
</g>
<!-- C&#45;&gt;D -->
<g id="edge11" class="edge" data-name="C-&gt;D">

<path fill="none" stroke="black" d="M168.65,-69.3C171.61,-80.83 175.66,-93.6 181,-104.63 183.68,-110.16 186.96,-115.71 190.46,-121.02"/>
<polygon fill="black" stroke="black" points="187.45,-122.82 196.05,-129.01 193.18,-118.81 187.45,-122.82"/>
<text text-anchor="middle" x="188" y="-92.03" font-family="Times,serif" font-size="14.00">30</text>
</g>
<!-- C&#45;&gt;E -->
<g id="edge12" class="edge" data-name="C-&gt;E">

<path fill="none" stroke="black" d="M156.49,-69.45C149.45,-112.25 137.25,-186.43 129.41,-234.12"/>
<polygon fill="black" stroke="black" points="125.98,-233.42 127.81,-243.86 132.88,-234.56 125.98,-233.42"/>
<text text-anchor="middle" x="155" y="-153.34" font-family="Times,serif" font-size="14.00">20</text>
</g>
<!-- D&#45;&gt;A -->
<g id="edge13" class="edge" data-name="D-&gt;A">

<path fill="none" stroke="black" d="M252.02,-169.17C271.17,-177.24 293.68,-190.41 305,-210.46 335.47,-264.45 314.27,-289.33 301,-349.89 291.94,-391.27 288.87,-403.43 264,-437.72 246.92,-461.27 222.27,-482.73 201.72,-498.42"/>
<polygon fill="black" stroke="black" points="199.75,-495.52 193.82,-504.3 203.94,-501.13 199.75,-495.52"/>
<text text-anchor="middle" x="311" y="-337.29" font-family="Times,serif" font-size="14.00">20</text>
</g>
<!-- D&#45;&gt;B -->
<g id="edge14" class="edge" data-name="D-&gt;B">

<path fill="none" stroke="black" d="M223.5,-192.56C224.12,-198.52 224.67,-204.66 225,-210.46 228.56,-272.33 227.97,-287.99 225,-349.89 224.9,-352.06 224.77,-354.28 224.62,-356.52"/>
<polygon fill="black" stroke="black" points="221.15,-356.02 223.87,-366.26 228.13,-356.56 221.15,-356.02"/>
<text text-anchor="middle" x="234" y="-275.97" font-family="Times,serif" font-size="14.00">25</text>
</g>
<!-- D&#45;&gt;C -->
<g id="edge15" class="edge" data-name="D-&gt;C">

<path fill="none" stroke="black" d="M209.26,-123.76C205.38,-112.17 200.51,-99.2 195,-87.83 192.71,-83.09 190.07,-78.26 187.31,-73.53"/>
<polygon fill="black" stroke="black" points="190.53,-72.08 182.34,-65.36 184.55,-75.72 190.53,-72.08"/>
<text text-anchor="middle" x="209" y="-92.03" font-family="Times,serif" font-size="14.00">30</text>
</g>
<!-- D&#45;&gt;E -->
<g id="edge16" class="edge" data-name="D-&gt;E">

<path fill="none" stroke="black" d="M199.47,-186.8C190.49,-199.42 179.51,-214.32 169,-227.26 164.11,-233.28 158.73,-239.53 153.42,-245.51"/>
<polygon fill="black" stroke="black" points="150.85,-243.14 146.76,-252.91 156.05,-247.82 150.85,-243.14"/>
<text text-anchor="middle" x="188" y="-214.66" font-family="Times,serif" font-size="14.00">10</text>
</g>
<!-- E&#45;&gt;A -->
<g id="edge17" class="edge" data-name="E-&gt;A">

<path fill="none" stroke="black" d="M127.79,-314.71C135.18,-357.51 147.99,-431.69 156.22,-479.38"/>
<polygon fill="black" stroke="black" points="152.75,-479.86 157.9,-489.12 159.65,-478.67 152.75,-479.86"/>
<text text-anchor="middle" x="156" y="-398.6" font-family="Times,serif" font-size="14.00">25</text>
</g>
<!-- E&#45;&gt;B -->
<g id="edge18" class="edge" data-name="E-&gt;B">

<path fill="none" stroke="black" d="M131.77,-313.85C136.38,-325.94 142.72,-339.27 151,-349.89 159.27,-360.49 170.22,-370.04 180.96,-377.97"/>
<polygon fill="black" stroke="black" points="178.83,-380.75 189.02,-383.64 182.85,-375.02 178.83,-380.75"/>
<text text-anchor="middle" x="158" y="-337.29" font-family="Times,serif" font-size="14.00">30</text>
</g>
<!-- E&#45;&gt;C -->
<g id="edge19" class="edge" data-name="E-&gt;C">

<path fill="none" stroke="black" d="M116.59,-245.38C112.58,-213.33 109.29,-164.05 119,-122.63 122.86,-106.17 130.32,-89.26 137.96,-74.79"/>
<polygon fill="black" stroke="black" points="141.02,-76.5 142.78,-66.06 134.89,-73.12 141.02,-76.5"/>
<text text-anchor="middle" x="126" y="-153.34" font-family="Times,serif" font-size="14.00">20</text>
</g>
<!-- E&#45;&gt;D -->
<g id="edge20" class="edge" data-name="E-&gt;D">

<path fill="none" stroke="black" d="M131.81,-246.53C136.42,-234.44 142.75,-221.11 151,-210.46 159.09,-200.02 169.77,-190.56 180.26,-182.67"/>
<polygon fill="black" stroke="black" points="182.03,-185.7 188.13,-177.03 177.96,-180.01 182.03,-185.7"/>
<text text-anchor="middle" x="158" y="-214.66" font-family="Times,serif" font-size="14.00">10</text>
</g>
</g>
</svg>